<mxfile host="app.diagrams.net" modified="2024-04-01T23:39:50.775Z" agent="Mozilla/5.0 (Windows NT 10.0; Win64; x64) AppleWebKit/537.36 (KHTML, like Gecko) Chrome/122.0.0.0 Safari/537.36 Edg/122.0.0.0" version="24.1.0" etag="aq3eZ--HldOY0xMctdKW" type="github">
  <diagram name="PÃ¡gina-1" id="nSk2I8zBXD7-CrNfk0Yb">
    <mxGraphModel>
      <root>
        <mxCell id="0" />
        <mxCell id="1" parent="0" />
      </root>
    </mxGraphModel>
  </diagram>
</mxfile>
